# xmcd
#
# Track frame offsets: 
#        150
#        14423
#        18002
#        25368
#        42520
#        60975
#        74116
#        88564
#        107146
#        120252
#        135712
#        139042
#        158068
#        174612
#        182742
#        198576
#
# Disc length: 2693 seconds
#
# Revision: 0
# Processed by: cddbd v1.5.2PL0 Copyright (c) Steve Scherf et al.
# Submitted via: ExactAudioCopy v0.95b4
#
DISCID=d90a8310
DTITLE=The Beatles  - John Barrett's Cassette Dubs, Vol. 7
DYEAR=1900
DGENRE=
TTITLE0=One After 909
TTITLE1=Link\\Rock And Roll
TTITLE2=Chat
TTITLE3=Don't Let Me Down
TTITLE4=Dig A Pony
TTITLE5=I've Got A Feeling
TTITLE6=Get Back
TTITLE7=Let It Be
TTITLE8=For You Blue
TTITLE9=Two Of Us
TTITLE10=Maggie Mae
TTITLE11=Dig It
TTITLE12=The Long And Winding Road
TTITLE13=I Me Mine
TTITLE14=Across The Universe
TTITLE15=Get Back (reprise)
EXTD=
EXTT0=
EXTT1=
EXTT2=
EXTT3=
EXTT4=
EXTT5=
EXTT6=
EXTT7=
EXTT8=
EXTT9=
EXTT10=
EXTT11=
EXTT12=
EXTT13=
EXTT14=
EXTT15=
PLAYORDER=
